<svg width="24" height="24" viewBox="0 0 24 24" fill="none" xmlns="http://www.w3.org/2000/svg">
<g clip-path="url(#clip0_0_173)">
<path d="M8.74416 13.2405C8.74416 12.9399 8.50031 12.6963 8.19942 12.6963H6.29845C5.9979 12.6963 5.754 12.9399 5.754 13.2405V15.1412C5.754 15.4423 5.9979 15.6859 6.29845 15.6859H8.19942C8.50031 15.6859 8.74416 15.4423 8.74416 15.1412V13.2405Z" fill="#525969"/>
<path d="M13.4949 13.2405C13.4949 12.9399 13.251 12.6963 12.9507 12.6963H11.0495C10.7489 12.6963 10.505 12.9399 10.505 13.2405V15.1412C10.505 15.4423 10.7489 15.6859 11.0495 15.6859H12.9507C13.251 15.6859 13.4949 15.4423 13.4949 15.1412V13.2405Z" fill="#525969"/>
<path d="M18.246 13.2405C18.246 12.9399 18.0021 12.6963 17.7015 12.6963H15.8006C15.4997 12.6963 15.2558 12.9399 15.2558 13.2405V15.1412C15.2558 15.4423 15.4997 15.6859 15.8006 15.6859H17.7015C18.0021 15.6859 18.246 15.4423 18.246 15.1412V13.2405Z" fill="#525969"/>
<path d="M8.74416 17.9919C8.74416 17.6908 8.50031 17.4474 8.19942 17.4474H6.29845C5.9979 17.4474 5.754 17.6908 5.754 17.9919V19.8923C5.754 20.1931 5.9979 20.4367 6.29845 20.4367H8.19942C8.50031 20.4367 8.74416 20.1931 8.74416 19.8923V17.9919Z" fill="#525969"/>
<path d="M13.4949 17.9919C13.4949 17.6908 13.251 17.4474 12.9507 17.4474H11.0495C10.7489 17.4474 10.505 17.6908 10.505 17.9919V19.8923C10.505 20.1931 10.7489 20.4367 11.0495 20.4367H12.9507C13.251 20.4367 13.4949 20.1931 13.4949 19.8923V17.9919Z" fill="#525969"/>
<path d="M18.246 17.9919C18.246 17.6908 18.0021 17.4474 17.7018 17.4474H15.8006C15.4997 17.4474 15.2558 17.6908 15.2558 17.9919V19.8923C15.2558 20.1931 15.4997 20.4367 15.8006 20.4367H17.7018C18.0021 20.4367 18.246 20.1931 18.246 19.8923V17.9919Z" fill="#525969"/>
<path d="M21.6451 2.6718V5.575C21.6451 6.88721 20.5806 7.94466 19.2685 7.94466H17.7694C16.4572 7.94466 15.3786 6.88721 15.3786 5.575V2.66138H8.62137V5.575C8.62137 6.88721 7.54279 7.94466 6.23087 7.94466H4.73138C3.41942 7.94466 2.35494 6.88721 2.35494 5.575V2.6718C1.20827 2.70636 0.266022 3.6552 0.266022 4.82144V21.8356C0.266022 23.0237 1.22907 23.9996 2.41724 23.9996H21.5827C22.7691 23.9996 23.734 23.0217 23.734 21.8356V4.82144C23.734 3.6552 22.7918 2.70636 21.6451 2.6718ZM20.9488 20.7761C20.9488 21.2895 20.5324 21.7061 20.0188 21.7061H3.94027C3.42659 21.7061 3.01027 21.2895 3.01027 20.7761V11.9876C3.01027 11.474 3.42654 11.0574 3.94027 11.0574H20.0187C20.5324 11.0574 20.9487 11.474 20.9487 11.9876L20.9488 20.7761Z" fill="#525969"/>
<path d="M4.7261 6.38875H6.20901C6.65912 6.38875 7.02407 6.02434 7.02407 5.57423V0.814812C7.02407 0.364657 6.65912 0 6.20901 0H4.7261C4.27594 0 3.91104 0.364657 3.91104 0.814812V5.57423C3.91104 6.02434 4.27594 6.38875 4.7261 6.38875Z" fill="#525969"/>
<path d="M17.7503 6.38875H19.2332C19.683 6.38875 20.048 6.02434 20.048 5.57423V0.814812C20.048 0.364657 19.6831 0 19.2332 0H17.7503C17.3002 0 16.9353 0.364657 16.9353 0.814812V5.57423C16.9353 6.02434 17.3002 6.38875 17.7503 6.38875Z" fill="#525969"/>
</g>
<defs>
<clipPath id="clip0_0_173">
<rect width="24" height="24" fill="white"/>
</clipPath>
</defs>
</svg>
