<svg width="24" height="24" viewBox="0 0 24 24" fill="none" xmlns="http://www.w3.org/2000/svg">
<g clip-path="url(#clip0_0_192)">
<path d="M12.0547 0C12.0482 0 12.0354 0 12.0161 0C5.5086 0 0.216446 5.29214 0.216446 11.7996C0.216446 14.4553 1.12312 17.0339 2.78214 19.1109L1.06525 23.1041C0.923781 23.432 1.07811 23.8114 1.39962 23.9465C1.51537 23.9979 1.64398 24.0108 1.76615 23.9915L8.06143 22.8855C9.32177 23.342 10.6464 23.5735 11.9839 23.5671C18.4914 23.5671 23.7836 18.2749 23.7836 11.7675C23.7964 5.27928 18.5428 0.00643031 12.0547 0ZM8.01642 9.42683H11.4888C11.8425 9.42683 12.1318 9.7162 12.1318 10.0699C12.1318 10.4235 11.8425 10.7129 11.4888 10.7129H8.01642C7.66275 10.7129 7.37339 10.4235 7.37339 10.0699C7.37339 9.7162 7.66275 9.42683 8.01642 9.42683ZM15.99 13.9281H8.01642C7.66275 13.9281 7.37339 13.6387 7.37339 13.285C7.37339 12.9314 7.66275 12.642 8.01642 12.642H15.99C16.3437 12.642 16.633 12.9314 16.633 13.285C16.633 13.6387 16.3437 13.9281 15.99 13.9281Z" fill="#525969"/>
</g>
<defs>
<clipPath id="clip0_0_192">
<rect width="24" height="24" fill="white"/>
</clipPath>
</defs>
</svg>
